<mxfile host="app.diagrams.net" agent="Mozilla/5.0 (Windows NT 10.0; Win64; x64) AppleWebKit/537.36 (KHTML, like Gecko) Chrome/137.0.0.0 Safari/537.36" version="27.1.4">
  <diagram name="Page-1" id="6q3yVO71uEwQhgSgc6Yc">
    <mxGraphModel dx="1646" dy="1745" grid="1" gridSize="10" guides="1" tooltips="1" connect="1" arrows="1" fold="1" page="1" pageScale="1" pageWidth="1169" pageHeight="827" math="0" shadow="0">
      <root>
        <mxCell id="0" />
        <mxCell id="1" parent="0" />
        <mxCell id="_AoqBSNFDiNXYUAk5MFB-63" style="edgeStyle=orthogonalEdgeStyle;rounded=0;orthogonalLoop=1;jettySize=auto;html=1;entryX=1;entryY=0.5;entryDx=0;entryDy=0;exitX=0.5;exitY=1;exitDx=0;exitDy=0;" parent="1" source="_AoqBSNFDiNXYUAk5MFB-65" target="_AoqBSNFDiNXYUAk5MFB-62" edge="1">
          <mxGeometry relative="1" as="geometry" />
        </mxCell>
        <mxCell id="7o0yVAnlO2qSF2Ea2iqG-75" value="" style="edgeStyle=orthogonalEdgeStyle;rounded=0;orthogonalLoop=1;jettySize=auto;html=1;entryX=0.058;entryY=1.001;entryDx=0;entryDy=0;entryPerimeter=0;" edge="1" parent="1">
          <mxGeometry relative="1" as="geometry">
            <mxPoint x="608.5" y="150" as="sourcePoint" />
            <mxPoint x="608.926" y="50.12999999999988" as="targetPoint" />
          </mxGeometry>
        </mxCell>
        <mxCell id="_AoqBSNFDiNXYUAk5MFB-2" value="&lt;font&gt;Supervisior Agent&lt;/font&gt;" style="whiteSpace=wrap;html=1;movable=1;resizable=1;rotatable=1;deletable=1;editable=1;locked=0;connectable=1;fontSize=14;fillColor=#1ba1e2;fontColor=#ffffff;strokeColor=#006EAF;" parent="1" vertex="1">
          <mxGeometry x="580" y="150" width="80" height="300" as="geometry" />
        </mxCell>
        <mxCell id="_AoqBSNFDiNXYUAk5MFB-10" value="PTT User" style="rounded=0;whiteSpace=wrap;html=1;fontSize=7;" parent="1" vertex="1">
          <mxGeometry x="289.84000000000003" y="328.63" width="35" height="10" as="geometry" />
        </mxCell>
        <mxCell id="_AoqBSNFDiNXYUAk5MFB-12" value="Question" style="text;strokeColor=default;align=center;fillColor=none;html=1;verticalAlign=middle;whiteSpace=wrap;rounded=0;fontSize=10;" parent="1" vertex="1">
          <mxGeometry x="478.5" y="241.25" width="50" height="17.5" as="geometry" />
        </mxCell>
        <mxCell id="7o0yVAnlO2qSF2Ea2iqG-77" value="" style="edgeStyle=orthogonalEdgeStyle;rounded=0;orthogonalLoop=1;jettySize=auto;html=1;" edge="1" parent="1">
          <mxGeometry relative="1" as="geometry">
            <mxPoint x="332" y="288.63" as="sourcePoint" />
            <mxPoint x="392" y="288.63" as="targetPoint" />
          </mxGeometry>
        </mxCell>
        <mxCell id="_AoqBSNFDiNXYUAk5MFB-7" value="" style="sketch=0;outlineConnect=0;fontColor=#232F3E;gradientColor=none;fillColor=#232F3D;strokeColor=none;dashed=0;verticalLabelPosition=bottom;verticalAlign=top;align=center;html=1;fontSize=12;fontStyle=0;aspect=fixed;pointerEvents=1;shape=mxgraph.aws4.user;" parent="1" vertex="1">
          <mxGeometry x="285.34000000000003" y="277.79" width="44" height="44" as="geometry" />
        </mxCell>
        <mxCell id="_AoqBSNFDiNXYUAk5MFB-31" value="" style="edgeStyle=orthogonalEdgeStyle;rounded=0;orthogonalLoop=1;jettySize=auto;html=1;" parent="1" source="_AoqBSNFDiNXYUAk5MFB-25" edge="1">
          <mxGeometry relative="1" as="geometry">
            <mxPoint x="788.0000000000002" y="169.9999999999999" as="sourcePoint" />
            <mxPoint x="658.5" y="169.9999999999999" as="targetPoint" />
          </mxGeometry>
        </mxCell>
        <mxCell id="_AoqBSNFDiNXYUAk5MFB-22" value="Panfood Agent" style="rounded=0;whiteSpace=wrap;html=1;flipH=1;flipV=1;fillColor=#dae8fc;strokeColor=#6c8ebf;" parent="1" vertex="1">
          <mxGeometry x="1240" y="156.71" width="99" height="60" as="geometry" />
        </mxCell>
        <mxCell id="_AoqBSNFDiNXYUAk5MFB-32" value="" style="edgeStyle=orthogonalEdgeStyle;rounded=0;orthogonalLoop=1;jettySize=auto;html=1;" parent="1" source="_AoqBSNFDiNXYUAk5MFB-34" edge="1">
          <mxGeometry relative="1" as="geometry">
            <mxPoint x="660" y="200" as="sourcePoint" />
            <mxPoint x="789.5000000000002" y="200" as="targetPoint" />
          </mxGeometry>
        </mxCell>
        <mxCell id="_AoqBSNFDiNXYUAk5MFB-25" value="Question" style="text;strokeColor=default;align=center;fillColor=none;html=1;verticalAlign=middle;whiteSpace=wrap;rounded=0;fontSize=8;" parent="1" vertex="1">
          <mxGeometry x="707" y="160" width="40" height="20" as="geometry" />
        </mxCell>
        <mxCell id="_AoqBSNFDiNXYUAk5MFB-35" value="" style="edgeStyle=orthogonalEdgeStyle;rounded=0;orthogonalLoop=1;jettySize=auto;html=1;endArrow=none;startFill=0;" parent="1" target="_AoqBSNFDiNXYUAk5MFB-34" edge="1">
          <mxGeometry relative="1" as="geometry">
            <mxPoint x="660" y="200" as="sourcePoint" />
            <mxPoint x="789.5000000000002" y="200" as="targetPoint" />
          </mxGeometry>
        </mxCell>
        <mxCell id="_AoqBSNFDiNXYUAk5MFB-34" value="Answer" style="text;strokeColor=default;align=center;fillColor=none;html=1;verticalAlign=middle;whiteSpace=wrap;rounded=0;fontSize=8;" parent="1" vertex="1">
          <mxGeometry x="707" y="190" width="40" height="20" as="geometry" />
        </mxCell>
        <mxCell id="_AoqBSNFDiNXYUAk5MFB-37" value="" style="rounded=0;whiteSpace=wrap;html=1;fillColor=#f5f5f5;fontColor=#333333;strokeColor=#666666;" parent="1" vertex="1">
          <mxGeometry x="580" y="-151" width="697" height="130" as="geometry" />
        </mxCell>
        <mxCell id="_AoqBSNFDiNXYUAk5MFB-40" value="" style="edgeStyle=orthogonalEdgeStyle;rounded=0;orthogonalLoop=1;jettySize=auto;html=1;" parent="1" source="_AoqBSNFDiNXYUAk5MFB-44" edge="1">
          <mxGeometry relative="1" as="geometry">
            <mxPoint x="788.0000000000002" y="283.9999999999999" as="sourcePoint" />
            <mxPoint x="658.5" y="283.9999999999999" as="targetPoint" />
          </mxGeometry>
        </mxCell>
        <mxCell id="_AoqBSNFDiNXYUAk5MFB-41" value="After You Agent" style="rounded=0;whiteSpace=wrap;html=1;flipH=1;flipV=1;fillColor=#d5e8d4;strokeColor=#82b366;" parent="1" vertex="1">
          <mxGeometry x="1690" y="203" width="99" height="60" as="geometry" />
        </mxCell>
        <mxCell id="_AoqBSNFDiNXYUAk5MFB-42" value="" style="edgeStyle=orthogonalEdgeStyle;rounded=0;orthogonalLoop=1;jettySize=auto;html=1;" parent="1" source="_AoqBSNFDiNXYUAk5MFB-46" edge="1">
          <mxGeometry relative="1" as="geometry">
            <mxPoint x="660" y="314" as="sourcePoint" />
            <mxPoint x="789.5000000000002" y="314" as="targetPoint" />
          </mxGeometry>
        </mxCell>
        <mxCell id="_AoqBSNFDiNXYUAk5MFB-43" value="" style="edgeStyle=orthogonalEdgeStyle;rounded=0;orthogonalLoop=1;jettySize=auto;html=1;endArrow=none;startFill=0;" parent="1" target="_AoqBSNFDiNXYUAk5MFB-44" edge="1">
          <mxGeometry relative="1" as="geometry">
            <mxPoint x="788.0000000000002" y="283.9999999999999" as="sourcePoint" />
            <mxPoint x="658.5" y="283.9999999999999" as="targetPoint" />
          </mxGeometry>
        </mxCell>
        <mxCell id="_AoqBSNFDiNXYUAk5MFB-44" value="Question" style="text;strokeColor=default;align=center;fillColor=none;html=1;verticalAlign=middle;whiteSpace=wrap;rounded=0;fontSize=8;" parent="1" vertex="1">
          <mxGeometry x="707" y="274" width="40" height="20" as="geometry" />
        </mxCell>
        <mxCell id="_AoqBSNFDiNXYUAk5MFB-45" value="" style="edgeStyle=orthogonalEdgeStyle;rounded=0;orthogonalLoop=1;jettySize=auto;html=1;endArrow=none;startFill=0;" parent="1" target="_AoqBSNFDiNXYUAk5MFB-46" edge="1">
          <mxGeometry relative="1" as="geometry">
            <mxPoint x="660" y="314" as="sourcePoint" />
            <mxPoint x="789.5000000000002" y="314" as="targetPoint" />
          </mxGeometry>
        </mxCell>
        <mxCell id="_AoqBSNFDiNXYUAk5MFB-46" value="Answer" style="text;strokeColor=default;align=center;fillColor=none;html=1;verticalAlign=middle;whiteSpace=wrap;rounded=0;fontSize=8;" parent="1" vertex="1">
          <mxGeometry x="707" y="304" width="40" height="20" as="geometry" />
        </mxCell>
        <mxCell id="_AoqBSNFDiNXYUAk5MFB-47" value="" style="edgeStyle=orthogonalEdgeStyle;rounded=0;orthogonalLoop=1;jettySize=auto;html=1;" parent="1" source="_AoqBSNFDiNXYUAk5MFB-51" edge="1">
          <mxGeometry relative="1" as="geometry">
            <mxPoint x="789.5000000000002" y="409.9999999999999" as="sourcePoint" />
            <mxPoint x="660" y="409.9999999999999" as="targetPoint" />
          </mxGeometry>
        </mxCell>
        <mxCell id="_AoqBSNFDiNXYUAk5MFB-48" value="Harumiki Agent" style="rounded=0;whiteSpace=wrap;html=1;flipH=1;flipV=1;fillColor=#f8cecc;strokeColor=#b85450;" parent="1" vertex="1">
          <mxGeometry x="1691.5" y="329" width="99" height="60" as="geometry" />
        </mxCell>
        <mxCell id="_AoqBSNFDiNXYUAk5MFB-49" value="" style="edgeStyle=orthogonalEdgeStyle;rounded=0;orthogonalLoop=1;jettySize=auto;html=1;" parent="1" source="_AoqBSNFDiNXYUAk5MFB-53" edge="1">
          <mxGeometry relative="1" as="geometry">
            <mxPoint x="661.5" y="440" as="sourcePoint" />
            <mxPoint x="791.0000000000002" y="440" as="targetPoint" />
          </mxGeometry>
        </mxCell>
        <mxCell id="_AoqBSNFDiNXYUAk5MFB-50" value="" style="edgeStyle=orthogonalEdgeStyle;rounded=0;orthogonalLoop=1;jettySize=auto;html=1;endArrow=none;startFill=0;" parent="1" target="_AoqBSNFDiNXYUAk5MFB-51" edge="1">
          <mxGeometry relative="1" as="geometry">
            <mxPoint x="789.5000000000002" y="409.9999999999999" as="sourcePoint" />
            <mxPoint x="660" y="409.9999999999999" as="targetPoint" />
          </mxGeometry>
        </mxCell>
        <mxCell id="_AoqBSNFDiNXYUAk5MFB-51" value="Question" style="text;strokeColor=default;align=center;fillColor=none;html=1;verticalAlign=middle;whiteSpace=wrap;rounded=0;fontSize=8;" parent="1" vertex="1">
          <mxGeometry x="708.5" y="400" width="40" height="20" as="geometry" />
        </mxCell>
        <mxCell id="_AoqBSNFDiNXYUAk5MFB-52" value="" style="edgeStyle=orthogonalEdgeStyle;rounded=0;orthogonalLoop=1;jettySize=auto;html=1;endArrow=none;startFill=0;" parent="1" target="_AoqBSNFDiNXYUAk5MFB-53" edge="1">
          <mxGeometry relative="1" as="geometry">
            <mxPoint x="661.5" y="440" as="sourcePoint" />
            <mxPoint x="791.0000000000002" y="440" as="targetPoint" />
          </mxGeometry>
        </mxCell>
        <mxCell id="_AoqBSNFDiNXYUAk5MFB-53" value="Answer" style="text;strokeColor=default;align=center;fillColor=none;html=1;verticalAlign=middle;whiteSpace=wrap;rounded=0;fontSize=8;" parent="1" vertex="1">
          <mxGeometry x="708.5" y="430" width="40" height="20" as="geometry" />
        </mxCell>
        <mxCell id="_AoqBSNFDiNXYUAk5MFB-54" value="Memory" style="text;html=1;align=center;verticalAlign=middle;whiteSpace=wrap;rounded=0;" parent="1" vertex="1">
          <mxGeometry x="590" y="-141" width="60" height="30" as="geometry" />
        </mxCell>
        <mxCell id="_AoqBSNFDiNXYUAk5MFB-58" value="Data" style="rounded=0;whiteSpace=wrap;html=1;" parent="1" vertex="1">
          <mxGeometry x="597" y="-91" width="71" height="50" as="geometry" />
        </mxCell>
        <mxCell id="_AoqBSNFDiNXYUAk5MFB-59" value="Historic questions,&lt;div&gt;Chat&lt;/div&gt;" style="rounded=0;whiteSpace=wrap;html=1;" parent="1" vertex="1">
          <mxGeometry x="677.5" y="-91" width="71" height="50" as="geometry" />
        </mxCell>
        <mxCell id="_AoqBSNFDiNXYUAk5MFB-60" value="" style="rounded=0;whiteSpace=wrap;html=1;" parent="1" vertex="1">
          <mxGeometry x="847" y="-141" width="420" height="110" as="geometry" />
        </mxCell>
        <mxCell id="_AoqBSNFDiNXYUAk5MFB-71" value="" style="edgeStyle=orthogonalEdgeStyle;rounded=0;orthogonalLoop=1;jettySize=auto;html=1;" parent="1" source="_AoqBSNFDiNXYUAk5MFB-62" target="_AoqBSNFDiNXYUAk5MFB-70" edge="1">
          <mxGeometry relative="1" as="geometry" />
        </mxCell>
        <mxCell id="_AoqBSNFDiNXYUAk5MFB-62" value="MCP Server" style="rounded=0;whiteSpace=wrap;html=1;" parent="1" vertex="1">
          <mxGeometry x="497" y="550" width="93" height="30" as="geometry" />
        </mxCell>
        <mxCell id="_AoqBSNFDiNXYUAk5MFB-69" value="" style="edgeStyle=orthogonalEdgeStyle;rounded=0;orthogonalLoop=1;jettySize=auto;html=1;entryX=0.5;entryY=0;entryDx=0;entryDy=0;exitX=0.5;exitY=1;exitDx=0;exitDy=0;endArrow=none;startFill=0;" parent="1" source="_AoqBSNFDiNXYUAk5MFB-2" target="_AoqBSNFDiNXYUAk5MFB-65" edge="1">
          <mxGeometry relative="1" as="geometry">
            <mxPoint x="620" y="450" as="sourcePoint" />
            <mxPoint x="537" y="530" as="targetPoint" />
          </mxGeometry>
        </mxCell>
        <mxCell id="_AoqBSNFDiNXYUAk5MFB-65" value="Trigger 1 time/day" style="text;strokeColor=default;align=center;fillColor=none;html=1;verticalAlign=middle;whiteSpace=wrap;rounded=0;fontSize=10;" parent="1" vertex="1">
          <mxGeometry x="590" y="490" width="60" height="30" as="geometry" />
        </mxCell>
        <mxCell id="7o0yVAnlO2qSF2Ea2iqG-27" value="" style="edgeStyle=orthogonalEdgeStyle;rounded=0;orthogonalLoop=1;jettySize=auto;html=1;entryX=1;entryY=0.5;entryDx=0;entryDy=0;exitX=0.023;exitY=0.141;exitDx=0;exitDy=0;exitPerimeter=0;" edge="1" parent="1" source="_AoqBSNFDiNXYUAk5MFB-70" target="7o0yVAnlO2qSF2Ea2iqG-25">
          <mxGeometry relative="1" as="geometry">
            <mxPoint x="390" y="565" as="sourcePoint" />
          </mxGeometry>
        </mxCell>
        <mxCell id="_AoqBSNFDiNXYUAk5MFB-70" value="Massage Line API" style="rounded=0;whiteSpace=wrap;html=1;" parent="1" vertex="1">
          <mxGeometry x="417" y="460.25" width="50" height="210" as="geometry" />
        </mxCell>
        <mxCell id="_AoqBSNFDiNXYUAk5MFB-72" value="Interactive to customer with topic Electrical power compare with previous day and this day&amp;nbsp;" style="text;html=1;align=left;verticalAlign=middle;whiteSpace=wrap;rounded=0;fontSize=10;" parent="1" vertex="1">
          <mxGeometry x="478.5" y="614.25" width="130" height="70" as="geometry" />
        </mxCell>
        <mxCell id="_AoqBSNFDiNXYUAk5MFB-73" value="" style="sketch=0;outlineConnect=0;fontColor=#232F3E;gradientColor=none;fillColor=#232F3D;strokeColor=none;dashed=0;verticalLabelPosition=bottom;verticalAlign=top;align=center;html=1;fontSize=12;fontStyle=0;aspect=fixed;pointerEvents=1;shape=mxgraph.aws4.user;" parent="1" vertex="1">
          <mxGeometry x="1491.5" y="170.16" width="36.317460317460316" height="36.317460317460316" as="geometry" />
        </mxCell>
        <mxCell id="7o0yVAnlO2qSF2Ea2iqG-23" value="After you group line" style="rounded=0;whiteSpace=wrap;html=1;flipH=1;flipV=1;fillColor=#d5e8d4;strokeColor=#82b366;" vertex="1" parent="1">
          <mxGeometry x="250" y="546" width="60" height="38.5" as="geometry" />
        </mxCell>
        <mxCell id="7o0yVAnlO2qSF2Ea2iqG-25" value="Panfood group line" style="rounded=0;whiteSpace=wrap;html=1;flipH=1;flipV=1;fillColor=#dae8fc;strokeColor=#6c8ebf;" vertex="1" parent="1">
          <mxGeometry x="250" y="470" width="60" height="38.5" as="geometry" />
        </mxCell>
        <mxCell id="7o0yVAnlO2qSF2Ea2iqG-26" value="Harumiki group line" style="rounded=0;whiteSpace=wrap;html=1;flipH=1;flipV=1;fillColor=#f8cecc;strokeColor=#b85450;" vertex="1" parent="1">
          <mxGeometry x="250" y="630" width="60" height="38.5" as="geometry" />
        </mxCell>
        <mxCell id="7o0yVAnlO2qSF2Ea2iqG-28" value="" style="edgeStyle=orthogonalEdgeStyle;rounded=0;orthogonalLoop=1;jettySize=auto;html=1;entryX=1;entryY=0.5;entryDx=0;entryDy=0;exitX=0;exitY=0.5;exitDx=0;exitDy=0;" edge="1" parent="1" source="_AoqBSNFDiNXYUAk5MFB-70" target="7o0yVAnlO2qSF2Ea2iqG-23">
          <mxGeometry relative="1" as="geometry">
            <mxPoint x="390" y="565" as="sourcePoint" />
            <mxPoint x="330" y="570" as="targetPoint" />
          </mxGeometry>
        </mxCell>
        <mxCell id="7o0yVAnlO2qSF2Ea2iqG-29" value="" style="edgeStyle=orthogonalEdgeStyle;rounded=0;orthogonalLoop=1;jettySize=auto;html=1;entryX=-0.014;entryY=0.585;entryDx=0;entryDy=0;exitX=-0.046;exitY=0.883;exitDx=0;exitDy=0;entryPerimeter=0;exitPerimeter=0;" edge="1" parent="1" source="_AoqBSNFDiNXYUAk5MFB-70" target="7o0yVAnlO2qSF2Ea2iqG-26">
          <mxGeometry relative="1" as="geometry">
            <mxPoint x="390" y="565" as="sourcePoint" />
            <mxPoint x="350" y="604" as="targetPoint" />
          </mxGeometry>
        </mxCell>
        <mxCell id="7o0yVAnlO2qSF2Ea2iqG-33" value="VectorDB" style="text;html=1;align=center;verticalAlign=middle;whiteSpace=wrap;rounded=0;" vertex="1" parent="1">
          <mxGeometry x="847" y="-141" width="60" height="30" as="geometry" />
        </mxCell>
        <mxCell id="7o0yVAnlO2qSF2Ea2iqG-39" value="Panfood DB" style="rounded=0;whiteSpace=wrap;html=1;flipH=1;flipV=1;fillColor=#dae8fc;strokeColor=#6c8ebf;" vertex="1" parent="1">
          <mxGeometry x="897.5" y="-101" width="99" height="60" as="geometry" />
        </mxCell>
        <mxCell id="7o0yVAnlO2qSF2Ea2iqG-40" value="After You DB" style="rounded=0;whiteSpace=wrap;html=1;flipH=1;flipV=1;fillColor=#d5e8d4;strokeColor=#82b366;" vertex="1" parent="1">
          <mxGeometry x="1024" y="-101" width="99" height="60" as="geometry" />
        </mxCell>
        <mxCell id="7o0yVAnlO2qSF2Ea2iqG-41" value="Harumiki DB" style="rounded=0;whiteSpace=wrap;html=1;flipH=1;flipV=1;fillColor=#f8cecc;strokeColor=#b85450;" vertex="1" parent="1">
          <mxGeometry x="1157.5" y="-101" width="99" height="60" as="geometry" />
        </mxCell>
        <mxCell id="7o0yVAnlO2qSF2Ea2iqG-43" value="" style="rounded=0;whiteSpace=wrap;html=1;fillColor=#f5f5f5;fontColor=#333333;strokeColor=#666666;" vertex="1" parent="1">
          <mxGeometry x="887" y="-371" width="120" height="110" as="geometry" />
        </mxCell>
        <mxCell id="7o0yVAnlO2qSF2Ea2iqG-66" value="" style="edgeStyle=orthogonalEdgeStyle;rounded=0;orthogonalLoop=1;jettySize=auto;html=1;" edge="1" parent="1" source="7o0yVAnlO2qSF2Ea2iqG-44" target="7o0yVAnlO2qSF2Ea2iqG-65">
          <mxGeometry relative="1" as="geometry" />
        </mxCell>
        <mxCell id="7o0yVAnlO2qSF2Ea2iqG-44" value="Structured Data" style="rounded=0;whiteSpace=wrap;html=1;flipH=1;flipV=1;fillColor=#dae8fc;strokeColor=#6c8ebf;" vertex="1" parent="1">
          <mxGeometry x="897.5" y="-311" width="99" height="40" as="geometry" />
        </mxCell>
        <mxCell id="7o0yVAnlO2qSF2Ea2iqG-45" value="Unstructured Data" style="rounded=0;whiteSpace=wrap;html=1;flipH=1;flipV=1;fillColor=#dae8fc;strokeColor=#6c8ebf;" vertex="1" parent="1">
          <mxGeometry x="897.5" y="-361" width="99" height="40" as="geometry" />
        </mxCell>
        <mxCell id="7o0yVAnlO2qSF2Ea2iqG-48" value="&lt;font style=&quot;font-size: 8px;&quot;&gt;User Interface&lt;/font&gt;" style="text;strokeColor=default;align=center;fillColor=none;html=1;verticalAlign=middle;whiteSpace=wrap;rounded=0;fontSize=10;" vertex="1" parent="1">
          <mxGeometry x="392" y="211.75" width="32" height="176.5" as="geometry" />
        </mxCell>
        <mxCell id="7o0yVAnlO2qSF2Ea2iqG-50" value="&lt;font style=&quot;font-size: 8px;&quot;&gt;User Interface&lt;/font&gt;" style="text;strokeColor=default;align=center;fillColor=none;html=1;verticalAlign=middle;whiteSpace=wrap;rounded=0;fontSize=10;" vertex="1" parent="1">
          <mxGeometry x="1411" y="140.16" width="40" height="93.09" as="geometry" />
        </mxCell>
        <mxCell id="7o0yVAnlO2qSF2Ea2iqG-53" value="Template&lt;br&gt;CoD, CoT" style="rounded=0;whiteSpace=wrap;html=1;" vertex="1" parent="1">
          <mxGeometry x="756" y="-91" width="71" height="50" as="geometry" />
        </mxCell>
        <mxCell id="7o0yVAnlO2qSF2Ea2iqG-68" value="" style="edgeStyle=orthogonalEdgeStyle;rounded=0;orthogonalLoop=1;jettySize=auto;html=1;" edge="1" parent="1" source="7o0yVAnlO2qSF2Ea2iqG-54" target="7o0yVAnlO2qSF2Ea2iqG-55">
          <mxGeometry relative="1" as="geometry" />
        </mxCell>
        <mxCell id="7o0yVAnlO2qSF2Ea2iqG-54" value="" style="rounded=0;whiteSpace=wrap;html=1;fillColor=#f5f5f5;fontColor=#333333;strokeColor=#666666;" vertex="1" parent="1">
          <mxGeometry x="1014" y="-371" width="120" height="110" as="geometry" />
        </mxCell>
        <mxCell id="7o0yVAnlO2qSF2Ea2iqG-69" value="" style="edgeStyle=orthogonalEdgeStyle;rounded=0;orthogonalLoop=1;jettySize=auto;html=1;" edge="1" parent="1" source="7o0yVAnlO2qSF2Ea2iqG-55" target="7o0yVAnlO2qSF2Ea2iqG-40">
          <mxGeometry relative="1" as="geometry" />
        </mxCell>
        <mxCell id="7o0yVAnlO2qSF2Ea2iqG-55" value="Embedded Model" style="rounded=0;whiteSpace=wrap;html=1;flipH=1;flipV=1;fillColor=#d5e8d4;strokeColor=#82b366;" vertex="1" parent="1">
          <mxGeometry x="1024.5" y="-221" width="99" height="40" as="geometry" />
        </mxCell>
        <mxCell id="7o0yVAnlO2qSF2Ea2iqG-56" value="Structured Data" style="rounded=0;whiteSpace=wrap;html=1;flipH=1;flipV=1;fillColor=#d5e8d4;strokeColor=#82b366;" vertex="1" parent="1">
          <mxGeometry x="1024.5" y="-311" width="99" height="40" as="geometry" />
        </mxCell>
        <mxCell id="7o0yVAnlO2qSF2Ea2iqG-57" value="Unstructured Data" style="rounded=0;whiteSpace=wrap;html=1;flipH=1;flipV=1;fillColor=#d5e8d4;strokeColor=#82b366;" vertex="1" parent="1">
          <mxGeometry x="1024.5" y="-361" width="99" height="40" as="geometry" />
        </mxCell>
        <mxCell id="7o0yVAnlO2qSF2Ea2iqG-58" value="" style="rounded=0;whiteSpace=wrap;html=1;fillColor=#f5f5f5;fontColor=#333333;strokeColor=#666666;" vertex="1" parent="1">
          <mxGeometry x="1147" y="-371" width="120" height="110" as="geometry" />
        </mxCell>
        <mxCell id="7o0yVAnlO2qSF2Ea2iqG-71" value="" style="edgeStyle=orthogonalEdgeStyle;rounded=0;orthogonalLoop=1;jettySize=auto;html=1;" edge="1" parent="1" source="7o0yVAnlO2qSF2Ea2iqG-59" target="7o0yVAnlO2qSF2Ea2iqG-41">
          <mxGeometry relative="1" as="geometry" />
        </mxCell>
        <mxCell id="7o0yVAnlO2qSF2Ea2iqG-59" value="Embedded Model" style="rounded=0;whiteSpace=wrap;html=1;flipH=1;flipV=1;fillColor=#f8cecc;strokeColor=#b85450;" vertex="1" parent="1">
          <mxGeometry x="1157.5" y="-221" width="99" height="40" as="geometry" />
        </mxCell>
        <mxCell id="7o0yVAnlO2qSF2Ea2iqG-70" value="" style="edgeStyle=orthogonalEdgeStyle;rounded=0;orthogonalLoop=1;jettySize=auto;html=1;" edge="1" parent="1" source="7o0yVAnlO2qSF2Ea2iqG-60" target="7o0yVAnlO2qSF2Ea2iqG-59">
          <mxGeometry relative="1" as="geometry" />
        </mxCell>
        <mxCell id="7o0yVAnlO2qSF2Ea2iqG-60" value="Structured Data" style="rounded=0;whiteSpace=wrap;html=1;flipH=1;flipV=1;fillColor=#f8cecc;strokeColor=#b85450;" vertex="1" parent="1">
          <mxGeometry x="1157.5" y="-311" width="99" height="40" as="geometry" />
        </mxCell>
        <mxCell id="7o0yVAnlO2qSF2Ea2iqG-61" value="Unstructured Data" style="rounded=0;whiteSpace=wrap;html=1;flipH=1;flipV=1;fillColor=#f8cecc;strokeColor=#b85450;" vertex="1" parent="1">
          <mxGeometry x="1157.5" y="-361" width="99" height="40" as="geometry" />
        </mxCell>
        <mxCell id="7o0yVAnlO2qSF2Ea2iqG-67" value="" style="edgeStyle=orthogonalEdgeStyle;rounded=0;orthogonalLoop=1;jettySize=auto;html=1;" edge="1" parent="1" source="7o0yVAnlO2qSF2Ea2iqG-65" target="7o0yVAnlO2qSF2Ea2iqG-39">
          <mxGeometry relative="1" as="geometry" />
        </mxCell>
        <mxCell id="7o0yVAnlO2qSF2Ea2iqG-65" value="Embedded Model" style="rounded=0;whiteSpace=wrap;html=1;flipH=1;flipV=1;fillColor=#dae8fc;strokeColor=#6c8ebf;" vertex="1" parent="1">
          <mxGeometry x="897.5" y="-221" width="99" height="40" as="geometry" />
        </mxCell>
        <mxCell id="7o0yVAnlO2qSF2Ea2iqG-76" value="" style="edgeStyle=orthogonalEdgeStyle;rounded=0;orthogonalLoop=1;jettySize=auto;html=1;entryX=0.058;entryY=1.001;entryDx=0;entryDy=0;entryPerimeter=0;" edge="1" parent="1">
          <mxGeometry relative="1" as="geometry">
            <mxPoint x="632.4860000000001" y="50.129999999999995" as="sourcePoint" />
            <mxPoint x="632.06" y="150.0000000000001" as="targetPoint" />
          </mxGeometry>
        </mxCell>
        <mxCell id="7o0yVAnlO2qSF2Ea2iqG-78" value="" style="edgeStyle=orthogonalEdgeStyle;rounded=0;orthogonalLoop=1;jettySize=auto;html=1;" edge="1" parent="1">
          <mxGeometry relative="1" as="geometry">
            <mxPoint x="392" y="313.88" as="sourcePoint" />
            <mxPoint x="332" y="313.88" as="targetPoint" />
          </mxGeometry>
        </mxCell>
        <mxCell id="7o0yVAnlO2qSF2Ea2iqG-79" value="&lt;font style=&quot;font-size: 8px;&quot;&gt;Question&lt;/font&gt;" style="text;strokeColor=default;align=center;fillColor=none;html=1;verticalAlign=middle;whiteSpace=wrap;rounded=0;fontSize=10;" vertex="1" parent="1">
          <mxGeometry x="342.34000000000003" y="261.36999999999995" width="43" height="16.42" as="geometry" />
        </mxCell>
        <mxCell id="7o0yVAnlO2qSF2Ea2iqG-80" style="edgeStyle=orthogonalEdgeStyle;rounded=0;orthogonalLoop=1;jettySize=auto;html=1;entryX=-0.037;entryY=0.333;entryDx=0;entryDy=0;entryPerimeter=0;" edge="1" parent="1" source="_AoqBSNFDiNXYUAk5MFB-12" target="_AoqBSNFDiNXYUAk5MFB-2">
          <mxGeometry relative="1" as="geometry" />
        </mxCell>
        <mxCell id="7o0yVAnlO2qSF2Ea2iqG-81" style="edgeStyle=orthogonalEdgeStyle;rounded=0;orthogonalLoop=1;jettySize=auto;html=1;entryX=1.038;entryY=0.218;entryDx=0;entryDy=0;entryPerimeter=0;endArrow=none;startFill=0;" edge="1" parent="1" source="_AoqBSNFDiNXYUAk5MFB-12" target="7o0yVAnlO2qSF2Ea2iqG-48">
          <mxGeometry relative="1" as="geometry" />
        </mxCell>
        <mxCell id="7o0yVAnlO2qSF2Ea2iqG-82" value="Answer" style="text;strokeColor=default;align=center;fillColor=none;html=1;verticalAlign=middle;whiteSpace=wrap;rounded=0;fontSize=10;" vertex="1" parent="1">
          <mxGeometry x="478.5" y="327.58" width="50" height="17.5" as="geometry" />
        </mxCell>
        <mxCell id="7o0yVAnlO2qSF2Ea2iqG-85" style="edgeStyle=orthogonalEdgeStyle;rounded=0;orthogonalLoop=1;jettySize=auto;html=1;entryX=-0.037;entryY=0.621;entryDx=0;entryDy=0;entryPerimeter=0;endArrow=none;startFill=0;" edge="1" parent="1" source="7o0yVAnlO2qSF2Ea2iqG-82" target="_AoqBSNFDiNXYUAk5MFB-2">
          <mxGeometry relative="1" as="geometry" />
        </mxCell>
        <mxCell id="7o0yVAnlO2qSF2Ea2iqG-86" style="edgeStyle=orthogonalEdgeStyle;rounded=0;orthogonalLoop=1;jettySize=auto;html=1;entryX=0.962;entryY=0.707;entryDx=0;entryDy=0;entryPerimeter=0;" edge="1" parent="1" source="7o0yVAnlO2qSF2Ea2iqG-82" target="7o0yVAnlO2qSF2Ea2iqG-48">
          <mxGeometry relative="1" as="geometry" />
        </mxCell>
        <mxCell id="7o0yVAnlO2qSF2Ea2iqG-87" value="Retrieval&amp;nbsp;" style="rounded=0;whiteSpace=wrap;html=1;flipH=1;flipV=1;fillColor=#dae8fc;strokeColor=#6c8ebf;" vertex="1" parent="1">
          <mxGeometry x="897.5" y="4.319999999999979" width="99" height="60" as="geometry" />
        </mxCell>
        <mxCell id="7o0yVAnlO2qSF2Ea2iqG-88" value="Prompt template" style="rounded=0;whiteSpace=wrap;html=1;flipH=1;flipV=1;fillColor=#dae8fc;strokeColor=#6c8ebf;" vertex="1" parent="1">
          <mxGeometry x="897.5" y="158.32" width="99" height="60" as="geometry" />
        </mxCell>
      </root>
    </mxGraphModel>
  </diagram>
</mxfile>
